<svg  width="60" height="73"  xmlns="http://www.w3.org/2000/svg" xmlns:xlink="http://www.w3.org/1999/xlink" x="0px" y="0px"
	 viewBox="0 0 60 73" enable-background="new 0 0 60 73" xml:space="preserve">
<g>
	<defs>
		<polygon id="SVGID_2_" points="48.5,40.1 50.8,42.4 29.9,63.3 9.1,42.4 11.4,40.1 8.3,37.1 3,42.4 29.9,69.4 56.9,42.4 51.5,37.1 
					"/>
	</defs>
	<clipPath id="SVGID_3_">
		<use xlink:href="#SVGID_2_"  overflow="visible"/>
	</clipPath>
	
		<linearGradient id="SVGID_4_" gradientUnits="userSpaceOnUse" x1="-407.9187" y1="509.6131" x2="-406.9187" y2="509.6131" gradientTransform="matrix(0 -52.1524 -52.1524 0 26607.5117 -21205.0352)">
		<stop  offset="0" style="stop-color:#004F4D"/>
		<stop  offset="0.4838" style="stop-color:#00706D"/>
		<stop  offset="0.9976" style="stop-color:#308E90"/>
		<stop  offset="1" style="stop-color:#308E90"/>
	</linearGradient>
	<rect x="3" y="37.1" clip-path="url(#SVGID_3_)" fill="url(#SVGID_4_)" width="53.9" height="32.3"/>
</g>
<g>
	<defs>
		<polygon id="SVGID_1_" points="23.4,22 26.5,25 29.9,21.5 33.4,25 36.4,22 29.9,15.4 		"/>
	</defs>
	<clipPath id="SVGID_5_">
		<use xlink:href="#SVGID_1_"  overflow="visible"/>
	</clipPath>
	
		<linearGradient id="SVGID_6_" gradientUnits="userSpaceOnUse" x1="-407.9187" y1="509.6131" x2="-406.9187" y2="509.6131" gradientTransform="matrix(0 -52.1524 -52.1524 0 26607.5117 -21205.0352)">
		<stop  offset="0" style="stop-color:#004F4D"/>
		<stop  offset="0.4838" style="stop-color:#00706D"/>
		<stop  offset="0.9976" style="stop-color:#308E90"/>
		<stop  offset="1" style="stop-color:#308E90"/>
	</linearGradient>
	<rect x="23.4" y="15.4" clip-path="url(#SVGID_5_)" fill="url(#SVGID_6_)" width="13" height="9.5"/>
</g>
<polygon fill="#4D4D4F" points="29.9,50.6 2.9,23.6 2.9,29.7 29.9,56.6 56.8,29.7 56.8,23.6 "/>
<polygon fill="#77787B" points="2.9,13.8 2.9,19.9 29.9,46.9 56.8,19.9 56.8,13.8 29.9,40.8 "/>
<polygon fill="#9C9EA1" points="29.9,37.1 56.8,10.1 56.8,4 29.9,31 2.9,4 2.9,10.1 "/>
</svg>
