<?xml version="1.0" encoding="utf-8"?>
<!-- Generator: Adobe Illustrator 28.0.0, SVG Export Plug-In . SVG Version: 6.00 Build 0)  -->
<svg version="1.1" id="Layer_1" xmlns="http://www.w3.org/2000/svg" xmlns:xlink="http://www.w3.org/1999/xlink" x="0px" y="0px"
	 viewBox="0 0 178.2 73.8" style="enable-background:new 0 0 178.2 73.8;" xml:space="preserve">
<style type="text/css">
	
		.st0{clip-path:url(#SVGID_00000000187246355862138290000000959165429385755298_);fill:url(#SVGID_00000167373007980782476260000004267469004910636186_);}
	
		.st1{clip-path:url(#SVGID_00000127734763277208546860000010578306143729864626_);fill:url(#SVGID_00000076576013161499280520000011373583159001791139_);}
	.st2{fill:#4D4D4F;}
	.st3{fill:#77787B;}
	.st4{fill:#9C9EA1;}
	.st5{fill:#58595B;}
</style>
<g>
	<g>
		<g>
			<defs>
				<polygon id="SVGID_1_" points="52.5,41.1 54.8,43.4 33.9,64.2 13.1,43.4 15.4,41.1 12.3,38 7,43.4 33.9,70.3 60.9,43.4 55.5,38 
									"/>
			</defs>
			<clipPath id="SVGID_00000038415120475628285010000018092364027852069523_">
				<use xlink:href="#SVGID_1_"  style="overflow:visible;"/>
			</clipPath>
			
				<linearGradient id="SVGID_00000181774407024450289060000003535374108867654320_" gradientUnits="userSpaceOnUse" x1="-1209.2006" y1="254.8006" x2="-1208.2006" y2="254.8006" gradientTransform="matrix(0 -52.1524 52.1524 0 -13254.5117 -62992.8359)">
				<stop  offset="0" style="stop-color:#004F4D"/>
				<stop  offset="0.4838" style="stop-color:#00706D"/>
				<stop  offset="0.9976" style="stop-color:#308E90"/>
				<stop  offset="1" style="stop-color:#308E90"/>
			</linearGradient>
			
				<rect x="7" y="38" style="clip-path:url(#SVGID_00000038415120475628285010000018092364027852069523_);fill:url(#SVGID_00000181774407024450289060000003535374108867654320_);" width="53.9" height="32.3"/>
		</g>
	</g>
	<g>
		<g>
			<defs>
				<polygon id="SVGID_00000079483779734357733340000007005655046403624892_" points="27.4,22.9 30.5,26 33.9,22.5 37.4,26 
					40.4,22.9 33.9,16.4 				"/>
			</defs>
			<clipPath id="SVGID_00000141422561218151514730000011032217388628855938_">
				<use xlink:href="#SVGID_00000079483779734357733340000007005655046403624892_"  style="overflow:visible;"/>
			</clipPath>
			
				<linearGradient id="SVGID_00000068676517128210804050000009212349955522660238_" gradientUnits="userSpaceOnUse" x1="-1209.2006" y1="254.7996" x2="-1208.2006" y2="254.7996" gradientTransform="matrix(0 -52.1524 52.1524 0 -13254.5117 -62992.8359)">
				<stop  offset="0" style="stop-color:#004F4D"/>
				<stop  offset="0.4838" style="stop-color:#00706D"/>
				<stop  offset="0.9976" style="stop-color:#308E90"/>
				<stop  offset="1" style="stop-color:#308E90"/>
			</linearGradient>
			
				<rect x="27.4" y="16.4" style="clip-path:url(#SVGID_00000141422561218151514730000011032217388628855938_);fill:url(#SVGID_00000068676517128210804050000009212349955522660238_);" width="13" height="9.5"/>
		</g>
	</g>
	<polygon class="st2" points="33.9,51.3 7,24.3 7,30.4 33.9,57.3 60.9,30.4 60.9,24.3 	"/>
	<polygon class="st3" points="7,14.5 7,20.6 33.9,47.6 60.9,20.6 60.9,14.5 33.9,41.5 	"/>
	<polygon class="st4" points="33.9,37.8 60.9,10.8 60.9,4.7 33.9,31.7 7,4.7 7,10.8 	"/>
	<path class="st5" d="M78.7,30c-0.9,0-1.8-0.1-2.6-0.2c-0.9-0.1-1.6-0.3-2.2-0.6v-3c0.6,0.3,1.3,0.5,2,0.6c0.7,0.2,1.5,0.2,2.5,0.2
		c0.4,0,0.8,0,1.2-0.1c0.4,0,0.7-0.1,1-0.2s0.5-0.2,0.7-0.4c0.2-0.2,0.2-0.3,0.2-0.6c0-0.4-0.2-0.7-0.6-0.9
		c-0.4-0.2-0.9-0.5-1.5-0.7s-1.2-0.4-1.9-0.6c-0.7-0.2-1.3-0.5-1.9-0.9s-1.1-0.8-1.5-1.3s-0.6-1.2-0.6-2c0-0.7,0.2-1.3,0.5-1.8
		s0.7-1,1.3-1.3c0.6-0.3,1.3-0.6,2.1-0.8c0.8-0.2,1.7-0.3,2.7-0.3s1.9,0.1,2.7,0.2c0.8,0.1,1.5,0.3,2.1,0.6V19
		c-0.6-0.3-1.3-0.5-2-0.7c-0.8-0.2-1.6-0.3-2.6-0.3c-0.9,0-1.5,0.1-2,0.3c-0.5,0.2-0.8,0.5-0.8,1c0,0.4,0.2,0.7,0.6,0.9
		c0.4,0.2,0.9,0.5,1.5,0.7s1.2,0.4,1.9,0.6c0.7,0.2,1.3,0.5,1.9,0.9s1.1,0.8,1.5,1.3s0.6,1.2,0.6,2.1c0,0.7-0.2,1.3-0.5,1.8
		s-0.7,1-1.3,1.3c-0.6,0.4-1.3,0.6-2.1,0.8C80.6,30,79.7,30,78.7,30"/>
	<path class="st5" d="M87.4,22.6c0-1.1,0.2-2.1,0.5-3c0.4-0.9,0.9-1.7,1.5-2.3s1.5-1.1,2.4-1.5s2-0.5,3.1-0.5s2.2,0.2,3.1,0.5
		c0.9,0.4,1.7,0.9,2.4,1.5c0.7,0.6,1.2,1.4,1.5,2.3s0.5,1.9,0.5,3s-0.2,2.1-0.5,3c-0.4,0.9-0.9,1.7-1.5,2.3
		c-0.7,0.6-1.5,1.1-2.4,1.5s-2,0.5-3.1,0.5s-2.2-0.2-3.1-0.5c-0.9-0.4-1.7-0.9-2.4-1.5c-0.7-0.6-1.2-1.4-1.5-2.3
		C87.6,24.8,87.4,23.7,87.4,22.6 M90.7,22.6c0,1.4,0.4,2.5,1.1,3.3s1.8,1.2,3.2,1.2c1.4,0,2.5-0.4,3.2-1.2c0.7-0.8,1.1-1.9,1.1-3.3
		s-0.4-2.5-1.1-3.3s-1.8-1.2-3.2-1.2c-1.4,0-2.5,0.4-3.2,1.2C91.1,20.1,90.7,21.2,90.7,22.6"/>
	<polygon class="st5" points="105.2,15.4 108.5,15.4 108.5,21.1 110.5,21.1 113.9,15.4 117.8,15.4 117.8,18.2 116,18.2 113.4,22.5 
		117.9,29.8 114.1,29.8 110.6,24 108.5,24 108.5,29.8 105.2,29.8 	"/>
	<path class="st5" d="M119.5,22.6c0-1.1,0.2-2.1,0.5-3c0.4-0.9,0.9-1.7,1.5-2.3c0.7-0.6,1.5-1.1,2.4-1.5s2-0.5,3.1-0.5
		c1.1,0,2.2,0.2,3.1,0.5c0.9,0.4,1.7,0.9,2.4,1.5s1.2,1.4,1.5,2.3s0.5,1.9,0.5,3s-0.2,2.1-0.5,3c-0.4,0.9-0.9,1.7-1.5,2.3
		c-0.7,0.6-1.5,1.1-2.4,1.5s-2,0.5-3.1,0.5s-2.2-0.2-3.1-0.5c-0.9-0.4-1.7-0.9-2.4-1.5c-0.7-0.6-1.2-1.4-1.5-2.3
		C119.7,24.8,119.5,23.7,119.5,22.6 M122.8,22.6c0,1.4,0.4,2.5,1.1,3.3s1.8,1.2,3.2,1.2c1.4,0,2.5-0.4,3.2-1.2
		c0.7-0.8,1.1-1.9,1.1-3.3s-0.4-2.5-1.1-3.3c-0.7-0.8-1.8-1.2-3.2-1.2c-1.4,0-2.5,0.4-3.2,1.2C123.1,20.1,122.8,21.2,122.8,22.6"/>
	<polygon class="st5" points="137.5,15.4 140.7,15.4 140.7,27 147.4,27 147.4,29.8 137.5,29.8 	"/>
	<rect x="150.4" y="15.5" class="st5" width="3.3" height="14.3"/>
	<path class="st5" d="M161.8,30c-0.9,0-1.8-0.1-2.6-0.2c-0.9-0.1-1.6-0.3-2.2-0.6v-3c0.6,0.3,1.3,0.5,2,0.6c0.7,0.2,1.5,0.2,2.5,0.2
		c0.4,0,0.8,0,1.2-0.1c0.4,0,0.7-0.1,1-0.2s0.5-0.2,0.7-0.4c0.2-0.2,0.2-0.3,0.2-0.6c0-0.4-0.2-0.7-0.6-0.9
		c-0.4-0.2-0.9-0.5-1.5-0.7s-1.2-0.4-1.9-0.6s-1.3-0.5-1.9-0.9c-0.6-0.4-1.1-0.8-1.5-1.3s-0.6-1.2-0.6-2c0-0.7,0.2-1.3,0.5-1.8
		s0.7-1,1.3-1.3c0.6-0.3,1.3-0.6,2.1-0.8s1.7-0.3,2.7-0.3s1.9,0.1,2.7,0.2c0.8,0.1,1.5,0.3,2.1,0.6V19c-0.6-0.3-1.3-0.5-2-0.7
		c-0.8-0.2-1.6-0.3-2.6-0.3c-0.9,0-1.5,0.1-2,0.3c-0.5,0.2-0.8,0.5-0.8,1c0,0.4,0.2,0.7,0.6,0.9c0.4,0.2,0.9,0.5,1.5,0.7
		s1.2,0.4,1.9,0.6s1.3,0.5,1.9,0.9c0.6,0.4,1.1,0.8,1.5,1.3s0.6,1.2,0.6,2.1c0,0.7-0.2,1.3-0.5,1.8s-0.7,1-1.3,1.3
		c-0.6,0.4-1.3,0.6-2.1,0.8C163.7,30,162.8,30,161.8,30"/>
	<path class="st3" d="M73.8,42.8l0.3-0.6c0.4,0.4,1.1,0.7,1.9,0.7c1,0,1.4-0.4,1.4-0.9c0-1.4-3.4-0.5-3.4-2.6c0-0.9,0.7-1.6,2.2-1.6
		c0.7,0,1.3,0.2,1.8,0.5l-0.3,0.6c-0.5-0.3-1-0.5-1.5-0.5c-1,0-1.4,0.4-1.4,0.9c0,1.4,3.4,0.5,3.4,2.6c0,0.9-0.7,1.6-2.2,1.6
		C75.1,43.5,74.3,43.2,73.8,42.8"/>
	<polygon class="st3" points="80.5,38.5 78.5,38.5 78.5,37.8 83.2,37.8 83.2,38.5 81.3,38.5 81.3,43.5 80.5,43.5 	"/>
	<path class="st3" d="M87.5,42h-3l-0.6,1.4h-0.8l2.6-5.7h0.8l2.6,5.7h-0.8L87.5,42z M87.2,41.4L86,38.6l-1.2,2.8
		C84.8,41.4,87.2,41.4,87.2,41.4z"/>
	<polygon class="st3" points="95.2,43.5 95.2,39.3 93.1,42.8 92.8,42.8 90.7,39.4 90.7,43.5 89.9,43.5 89.9,37.8 90.6,37.8 93,41.8 
		95.3,37.8 95.9,37.8 96,43.5 	"/>
	<path class="st3" d="M102.6,41.9c0,1-0.7,1.5-2.2,1.5h-2.7v-5.7h2.5c1.3,0,2,0.5,2,1.5c0,0.6-0.3,1-0.8,1.3
		C102.2,40.7,102.6,41.2,102.6,41.9 M98.6,38.5v1.8h1.7c0.8,0,1.3-0.3,1.3-0.9c0-0.6-0.5-0.9-1.3-0.9
		C100.3,38.5,98.6,38.5,98.6,38.5z M101.8,41.9c0-0.7-0.5-0.9-1.4-0.9h-1.9v1.9h1.9C101.3,42.8,101.8,42.5,101.8,41.9"/>
	<polygon class="st3" points="108.1,42.8 108.1,43.5 104,43.5 104,37.8 108,37.8 108,38.5 104.8,38.5 104.8,40.2 107.6,40.2 
		107.6,40.9 104.8,40.9 104.8,42.8 	"/>
	<polygon class="st3" points="114.4,37.8 114.4,43.5 113.7,43.5 110.3,39.2 110.3,43.5 109.5,43.5 109.5,37.8 110.2,37.8 113.5,42 
		113.5,37.8 	"/>
	<path class="st3" d="M115.7,40.6c0-1.7,1.3-2.9,3-2.9s3,1.2,3,2.9s-1.3,2.9-3,2.9S115.7,42.3,115.7,40.6 M120.9,40.6
		c0-1.3-0.9-2.2-2.2-2.2c-1.3,0-2.2,0.9-2.2,2.2s0.9,2.2,2.2,2.2S120.9,41.9,120.9,40.6"/>
	<path class="st3" d="M129.9,39.8c0,1.2-0.9,2-2.4,2h-1.4v1.7h-0.8v-5.7h2.2C129,37.8,129.9,38.5,129.9,39.8 M129.1,39.8
		c0-0.8-0.5-1.3-1.6-1.3h-1.4V41h1.4C128.5,41,129.1,40.6,129.1,39.8"/>
	<path class="st3" d="M130.8,40.6c0-1.7,1.3-2.9,3-2.9s3,1.2,3,2.9s-1.3,2.9-3,2.9S130.8,42.3,130.8,40.6 M136,40.6
		c0-1.3-0.9-2.2-2.2-2.2s-2.2,0.9-2.2,2.2s0.9,2.2,2.2,2.2S136,41.9,136,40.6"/>
	<path class="st3" d="M137.6,42.8l0.3-0.6c0.4,0.4,1.1,0.7,1.9,0.7c1,0,1.4-0.4,1.4-0.9c0-1.4-3.4-0.5-3.4-2.6
		c0-0.9,0.7-1.6,2.2-1.6c0.7,0,1.3,0.2,1.8,0.5l-0.3,0.6c-0.5-0.3-1-0.5-1.5-0.5c-1,0-1.4,0.4-1.4,0.9c0,1.4,3.4,0.5,3.4,2.6
		c0,0.9-0.7,1.6-2.2,1.6C138.9,43.5,138.1,43.2,137.6,42.8"/>
	<polygon class="st3" points="143.3,37.8 144.1,37.8 144.1,42.8 147.1,42.8 147.1,43.5 143.3,43.5 	"/>
	<path class="st3" d="M147.6,40.6c0-1.7,1.3-2.9,3-2.9s3,1.2,3,2.9s-1.3,2.9-3,2.9C148.9,43.5,147.6,42.3,147.6,40.6 M152.8,40.6
		c0-1.3-0.9-2.2-2.2-2.2s-2.2,0.9-2.2,2.2s0.9,2.2,2.2,2.2C151.9,42.8,152.8,41.9,152.8,40.6"/>
	<polygon class="st3" points="159.7,37.8 157.2,43.5 156.4,43.5 153.9,37.8 154.8,37.8 156.8,42.4 158.9,37.8 	"/>
	<polygon class="st3" points="165.4,37.8 165.4,43.5 164.7,43.5 161.3,39.2 161.3,43.5 160.5,43.5 160.5,37.8 161.2,37.8 164.6,42 
		164.6,37.8 	"/>
	<rect x="167.2" y="37.8" class="st3" width="0.8" height="5.6"/>
	<polygon class="st3" points="76.2,50.9 75.1,51.9 75.1,53.4 74.3,53.4 74.3,47.8 75.1,47.8 75.1,50.9 78.2,47.8 79.1,47.8 
		76.7,50.3 79.3,53.4 78.3,53.4 	"/>
	<path class="st3" d="M79.6,50.6c0-1.7,1.3-2.9,3-2.9s3,1.2,3,2.9s-1.3,2.9-3,2.9C80.8,53.5,79.6,52.2,79.6,50.6 M84.8,50.6
		c0-1.3-0.9-2.2-2.2-2.2c-1.3,0-2.2,0.9-2.2,2.2s0.9,2.2,2.2,2.2C83.8,52.8,84.8,51.8,84.8,50.6"/>
	<polygon class="st3" points="92.2,53.4 92.2,49.3 90.1,52.7 89.7,52.7 87.7,49.3 87.7,53.4 86.9,53.4 86.9,47.8 87.6,47.8 
		89.9,51.7 92.3,47.8 92.9,47.8 92.9,53.4 	"/>
	<path class="st3" d="M99.3,49.7c0,1.2-0.9,2-2.4,2h-1.4v1.7h-0.8v-5.7h2.2C98.4,47.8,99.3,48.5,99.3,49.7 M98.5,49.7
		c0-0.8-0.5-1.3-1.6-1.3h-1.4V51h1.4C98,51,98.5,50.5,98.5,49.7"/>
	<polygon class="st3" points="100.6,47.8 101.4,47.8 101.4,52.7 104.5,52.7 104.5,53.4 100.6,53.4 	"/>
	<polygon class="st3" points="109.6,52.7 109.6,53.4 105.5,53.4 105.5,47.8 109.5,47.8 109.5,48.5 106.3,48.5 106.3,50.2 
		109.1,50.2 109.1,50.9 106.3,50.9 106.3,52.7 	"/>
	<polygon class="st3" points="112.9,50.9 111.8,51.9 111.8,53.4 111,53.4 111,47.8 111.8,47.8 111.8,50.9 114.9,47.8 115.8,47.8 
		113.4,50.3 116,53.4 115,53.4 	"/>
	<path class="st3" d="M116.3,52.8l0.3-0.6c0.4,0.4,1.1,0.7,1.9,0.7c1,0,1.4-0.4,1.4-0.9c0-1.4-3.4-0.5-3.4-2.6
		c0-0.9,0.7-1.6,2.2-1.6c0.7,0,1.3,0.2,1.8,0.5l-0.3,0.6c-0.5-0.3-1-0.5-1.5-0.5c-1,0-1.4,0.4-1.4,0.9c0,1.4,3.4,0.5,3.4,2.6
		c0,0.9-0.7,1.6-2.2,1.6C117.6,53.5,116.7,53.2,116.3,52.8"/>
</g>
</svg>
