<?xml version="1.0" encoding="utf-8"?>
<!-- Generator: Adobe Illustrator 28.0.0, SVG Export Plug-In . SVG Version: 6.00 Build 0)  -->
<svg version="1.1" id="Layer_1" xmlns="http://www.w3.org/2000/svg" xmlns:xlink="http://www.w3.org/1999/xlink" x="0px" y="0px"
	 viewBox="0 0 127 127" style="enable-background:new 0 0 127 127;" xml:space="preserve">
<style type="text/css">
	.st0{fill:#77787B;}
	.st1{fill:#9C9EA1;}
</style>
<g>
	<path class="st0" d="M87.2,118.8H39.8c-0.7,0-1.3-0.3-1.6-0.9c-0.4-0.5-0.5-1.2-0.2-1.8l8-21.1c-7-0.7-12.5-6.7-12.5-13.9V22.2
		c0-7.7,6.3-14,14-14h32.3c7.7,0,14,6.3,14,14v58.8c0,7.3-5.7,13.4-12.9,14l8.3,21c0.2,0.6,0.2,1.3-0.2,1.9
		C88.5,118.4,87.9,118.8,87.2,118.8z M42.7,114.8h41.7l-8.3-21c-0.2-0.6-0.2-1.3,0.2-1.9c0.4-0.5,1-0.9,1.7-0.9h1.8
		c5.5,0,10-4.5,10-10V22.2c0-5.5-4.5-10-10-10H47.3c-5.5,0-10,4.5-10,10v58.8c0,5.5,4.5,10,10,10h1.4c0.7,0,1.3,0.3,1.6,0.9
		c0.4,0.5,0.5,1.2,0.2,1.8L42.7,114.8z"/>
</g>
<g>
	<circle class="st1" cx="51.3" cy="32.9" r="5"/>
	<circle class="st1" cx="75.7" cy="32.9" r="5"/>
</g>
<circle class="st1" cx="63.5" cy="53.2" r="5"/>
</svg>
