<?xml version="1.0" encoding="utf-8"?>
<!-- Generator: Adobe Illustrator 28.0.0, SVG Export Plug-In . SVG Version: 6.00 Build 0)  -->
<svg version="1.1" id="Layer_1" xmlns="http://www.w3.org/2000/svg" xmlns:xlink="http://www.w3.org/1999/xlink" x="0px" y="0px"
	 viewBox="0 0 76 76" style="enable-background:new 0 0 76 76;" xml:space="preserve">
<style type="text/css">
	.st0{fill:#77787B;}
	.st1{fill:#9C9EA1;}
</style>
<g>
	<path class="st0" d="M38,64.9c-0.7,0-1.5,0-2.2-0.1c-16.3-1-29.5-14.1-30.7-30.4c-0.2-2.8-0.1-5.6,0.4-8.3l0,0
		c0.5-2.8,3-4.8,5.8-4.8H64c3.2,0,5.8,2.3,6.3,5.4c0.3,1.7,0.4,3.5,0.4,5.2c0,9.1-3.8,17.8-10.4,24C54.4,61.8,46.4,64.9,38,64.9z
		 M11.4,24.3c-1.4,0-2.6,1-2.9,2.4l0,0c-0.4,2.5-0.6,5-0.4,7.6C9.3,49.1,21.2,60.9,36,61.9c8.4,0.5,16.3-2.3,22.4-8
		s9.5-13.5,9.5-21.8c0-1.6-0.1-3.2-0.4-4.8c-0.3-1.7-1.7-2.9-3.4-2.9H11.4V24.3z"/>
</g>
<path class="st0" d="M38,40.7c-11,0-19.9,3.7-19.9,8.2c0,4.5,8.9,8.2,19.9,8.2s19.9-3.7,19.9-8.2C57.9,44.4,49,40.7,38,40.7z
	 M38,55.7c-6.7,0-12.1-2.1-12.1-4.6c0-2.5,5.4-4.6,12.1-4.6c6.7,0,12.1,2.1,12.1,4.6C50.1,53.6,44.7,55.7,38,55.7z"/>
<circle class="st1" cx="38" cy="31.6" r="4.3"/>
</svg>
